<svg xmlns="http://www.w3.org/2000/svg">
	<symbol id="address" fill="none">
		<path d="M8 1C4.13404 1 1 4.07606 1 7.8705C1 13.8889 8 21 8 21C8 21 15 13.8889 15 7.8705C15 4.07606 11.866 1 8 1Z" stroke="#FCE500" stroke-width="2" stroke-miterlimit="10" stroke-linecap="round" stroke-linejoin="round" />
		<path d="M8 10C9.10457 10 10 9.10457 10 8C10 6.89543 9.10457 6 8 6C6.89543 6 6 6.89543 6 8C6 9.10457 6.89543 10 8 10Z" stroke="#FCE500" stroke-miterlimit="10" stroke-linecap="round" stroke-linejoin="round" />
	</symbol>
	<symbol id="result-type2" fill="none">
		<path d="M9.00025 1H7.99975L4.81482 7.67364L6.81796 8.87593V11.5609L1 12.5101V13.6751C1 14.9591 7.17333 16 8.50076 16C9.82673 16 16 14.9591 16 13.6751V12.5101L10.1828 11.5609V8.87593L12.1859 7.67364L9.00025 1Z" stroke="#27509B" stroke-miterlimit="10" stroke-linecap="round" stroke-linejoin="round" />
		<path d="M6.99902 8.74213H9.99173" stroke="#27509B" stroke-miterlimit="10" stroke-linecap="round" stroke-linejoin="round" />
		<path d="M6.99902 11.561H10.6238" stroke="#27509B" stroke-miterlimit="10" stroke-linecap="round" stroke-linejoin="round" />
	</symbol>
	<symbol id="result-type1" fill="none">
		<path d="M8.46656 3.9228L6.73926 1.79688" stroke="#27509B" stroke-miterlimit="10" stroke-linecap="round" stroke-linejoin="round" />
		<path d="M8.4668 3.9228L10.1941 1.79688" stroke="#27509B" stroke-miterlimit="10" stroke-linecap="round" stroke-linejoin="round" />
		<path d="M5.24012 5.28704L2.51562 5.00537" stroke="#27509B" stroke-miterlimit="10" stroke-linecap="round" stroke-linejoin="round" />
		<path d="M5.24067 5.28705L4.95898 2.56256" stroke="#27509B" stroke-miterlimit="10" stroke-linecap="round" stroke-linejoin="round" />
		<path d="M3.92377 8.53308L1.79785 10.2604" stroke="#27509B" stroke-miterlimit="10" stroke-linecap="round" stroke-linejoin="round" />
		<path d="M3.92377 8.5331L1.79785 6.80579" stroke="#27509B" stroke-miterlimit="10" stroke-linecap="round" stroke-linejoin="round" />
		<path d="M5.28788 11.7598L5.00586 14.4843" stroke="#27509B" stroke-miterlimit="10" stroke-linecap="round" stroke-linejoin="round" />
		<path d="M5.28733 11.7598L2.5625 12.0418" stroke="#27509B" stroke-miterlimit="10" stroke-linecap="round" stroke-linejoin="round" />
		<path d="M8.53418 13.0768L10.2615 15.2027" stroke="#27509B" stroke-miterlimit="10" stroke-linecap="round" stroke-linejoin="round" />
		<path d="M8.53395 13.0768L6.80664 15.2027" stroke="#27509B" stroke-miterlimit="10" stroke-linecap="round" stroke-linejoin="round" />
		<path d="M11.7598 11.7126L14.4843 11.995" stroke="#27509B" stroke-miterlimit="10" stroke-linecap="round" stroke-linejoin="round" />
		<path d="M11.7598 11.7126L12.0414 14.4378" stroke="#27509B" stroke-miterlimit="10" stroke-linecap="round" stroke-linejoin="round" />
		<path d="M13.0771 8.46663L15.2031 6.73932" stroke="#27509B" stroke-miterlimit="10" stroke-linecap="round" stroke-linejoin="round" />
		<path d="M13.0771 8.46661L15.2031 10.1939" stroke="#27509B" stroke-miterlimit="10" stroke-linecap="round" stroke-linejoin="round" />
		<path d="M8.49977 10.2271C9.45374 10.2271 10.2271 9.4538 10.2271 8.49984C10.2271 7.54587 9.45374 6.77252 8.49977 6.77252C7.54581 6.77252 6.77246 7.54587 6.77246 8.49984C6.77246 9.4538 7.54581 10.2271 8.49977 10.2271Z" stroke="#27509B" stroke-miterlimit="10" stroke-linecap="round" stroke-linejoin="round" />
		<path d="M8.4668 6.75759V1" stroke="#27509B" stroke-miterlimit="10" stroke-linecap="round" stroke-linejoin="round" />
		<path d="M7.24497 7.2914L3.17383 3.22028" stroke="#27509B" stroke-miterlimit="10" stroke-linecap="round" stroke-linejoin="round" />
		<path d="M6.75759 8.53308H1" stroke="#27509B" stroke-miterlimit="10" stroke-linecap="round" stroke-linejoin="round" />
		<path d="M7.29217 9.75543L3.2207 13.8269" stroke="#27509B" stroke-miterlimit="10" stroke-linecap="round" stroke-linejoin="round" />
		<path d="M8.53418 10.2424V16" stroke="#27509B" stroke-miterlimit="10" stroke-linecap="round" stroke-linejoin="round" />
		<path d="M9.75586 9.70862L13.827 13.7797" stroke="#27509B" stroke-miterlimit="10" stroke-linecap="round" stroke-linejoin="round" />
		<path d="M10.2432 8.46661H16.0008" stroke="#27509B" stroke-miterlimit="10" stroke-linecap="round" stroke-linejoin="round" />
		<path d="M9.70898 7.24424L13.7804 3.1731" stroke="#27509B" stroke-miterlimit="10" stroke-linecap="round" stroke-linejoin="round" />
		<path d="M11.7129 5.24021L11.9949 2.51538" stroke="#27509B" stroke-miterlimit="10" stroke-linecap="round" stroke-linejoin="round" />
		<path d="M11.7129 5.24021L14.4377 4.95819" stroke="#27509B" stroke-miterlimit="10" stroke-linecap="round" stroke-linejoin="round" />
	</symbol>
	<symbol id="warning" fill="none">
		<path d="M12 22C17.5229 22 22.0001 17.5229 22.0001 12C22.0001 6.47714 17.5229 2 12 2C6.47717 2 2 6.47714 2 12C2 17.5229 6.47717 22 12 22Z" stroke="#FCE500" stroke-width="2.4" stroke-miterlimit="10" stroke-linecap="round" stroke-linejoin="round" />
		<path d="M12.0005 7.18067V6.50354" stroke="#FCE500" stroke-width="1.76" stroke-miterlimit="10" stroke-linecap="round" stroke-linejoin="round" />
		<path d="M12.0005 17.4962V9.9407" stroke="#FCE500" stroke-width="1.76" stroke-miterlimit="10" stroke-linecap="round" stroke-linejoin="round" />
	</symbol>
	<symbol id="filter1" fill="none">
		<path d="M7.8153 5.04656C7.00598 5.04656 6.3501 4.14101 6.3501 3.02364C6.3501 1.90551 7.00598 1 7.8153 1H24.535C25.3438 1 25.9997 1.90551 25.9997 3.02364C25.9997 4.14101 25.3438 5.04656 24.535 5.04656H7.8153Z" stroke="#FCE500" stroke-width="2" stroke-miterlimit="10" stroke-linecap="round" stroke-linejoin="round" />
		<path d="M7.8153 13.0231C7.00598 13.0231 6.3501 12.1176 6.3501 11.0002C6.3501 9.88285 7.00598 8.97655 7.8153 8.97655H24.535C25.3438 8.97655 25.9997 9.88285 25.9997 11.0002C25.9997 12.1176 25.3438 13.0231 24.535 13.0231H7.8153Z" stroke="#FCE500" stroke-width="2" stroke-miterlimit="10" stroke-linecap="round" stroke-linejoin="round" />
		<path d="M7.8153 20.9998C7.00598 20.9998 6.3501 20.0943 6.3501 18.9769C6.3501 17.8596 7.00598 16.9533 7.8153 16.9533H24.535C25.3438 16.9533 25.9997 17.8596 25.9997 18.9769C25.9997 20.0943 25.3438 20.9998 24.535 20.9998H7.8153Z" stroke="#FCE500" stroke-width="2" stroke-miterlimit="10" stroke-linecap="round" stroke-linejoin="round" />
		<path d="M2.46521 5.04656C1.65589 5.04656 1 4.14101 1 3.02364C1 1.90551 1.65589 1 2.46521 1H2.50286C3.31218 1 3.96807 1.90551 3.96807 3.02364C3.96807 4.14101 3.31218 5.04656 2.50286 5.04656H2.46521Z" stroke="#FCE500" stroke-width="2" stroke-miterlimit="10" stroke-linecap="round" stroke-linejoin="round" />
		<path d="M2.46521 13.0231C1.65589 13.0231 1 12.1176 1 11.0002C1 9.88285 1.65589 8.97655 2.46521 8.97655H2.50286C3.31218 8.97655 3.96807 9.88285 3.96807 11.0002C3.96807 12.1176 3.31218 13.0231 2.50286 13.0231H2.46521Z" stroke="#FCE500" stroke-width="2" stroke-miterlimit="10" stroke-linecap="round" stroke-linejoin="round" />
		<path d="M2.46521 20.9998C1.65589 20.9998 1 20.0943 1 18.9769C1 17.8596 1.65589 16.9533 2.46521 16.9533H2.50286C3.31218 16.9533 3.96807 17.8596 3.96807 18.9769C3.96807 20.0943 3.31218 20.9998 2.50286 20.9998H2.46521Z" stroke="#FCE500" stroke-width="2" stroke-miterlimit="10" stroke-linecap="round" stroke-linejoin="round" />
	</symbol>
	<symbol id="filter3" fill="none">
		<path d="M13.4996 20.0298C17.1059 20.0298 20.0294 17.1062 20.0294 13.4999C20.0294 9.89353 17.1059 6.97002 13.4996 6.97002C9.89324 6.97002 6.96973 9.89353 6.96973 13.4999C6.96973 17.1062 9.89324 20.0298 13.4996 20.0298Z" stroke="#FCE500" stroke-width="2" stroke-miterlimit="10" stroke-linecap="round" stroke-linejoin="round" />
		<path d="M13.4512 3.25611V1" stroke="#FCE500" stroke-width="2" stroke-miterlimit="10" stroke-linecap="round" stroke-linejoin="round" />
		<path d="M6.22243 6.2915L4.62695 4.69606" stroke="#FCE500" stroke-width="2" stroke-miterlimit="10" stroke-linecap="round" stroke-linejoin="round" />
		<path d="M3.2567 13.5495H1" stroke="#FCE500" stroke-width="2" stroke-miterlimit="10" stroke-linecap="round" stroke-linejoin="round" />
		<path d="M6.29116 20.7779L4.69629 22.3734" stroke="#FCE500" stroke-width="2" stroke-miterlimit="10" stroke-linecap="round" stroke-linejoin="round" />
		<path d="M13.5488 23.7437V26.0004" stroke="#FCE500" stroke-width="2" stroke-miterlimit="10" stroke-linecap="round" stroke-linejoin="round" />
		<path d="M20.7783 20.7083L22.3738 22.3043" stroke="#FCE500" stroke-width="2" stroke-miterlimit="10" stroke-linecap="round" stroke-linejoin="round" />
		<path d="M23.7432 13.451H25.9999" stroke="#FCE500" stroke-width="2" stroke-miterlimit="10" stroke-linecap="round" stroke-linejoin="round" />
		<path d="M20.709 6.22178L22.3039 4.62575" stroke="#FCE500" stroke-width="2" stroke-miterlimit="10" stroke-linecap="round" stroke-linejoin="round" />
	</symbol>
	<symbol fill="none" id="filter5">
		<path d="M13.7118 14.2428C12.0949 14.2428 10.7842 12.932 10.7842 11.3151C10.7842 9.69824 12.0949 8.38748 13.7118 8.38748" stroke="#FCE500" stroke-width="2" stroke-miterlimit="10" stroke-linecap="round" stroke-linejoin="round" />
		<path d="M11.5838 9.26697L4.68359 2.36676" stroke="#FCE500" stroke-width="2" stroke-miterlimit="10" stroke-linecap="round" stroke-linejoin="round" />
		<path d="M8.18712 5.86979L3.56934 5.39238" stroke="#FCE500" stroke-width="2" stroke-miterlimit="10" stroke-linecap="round" stroke-linejoin="round" />
		<path d="M8.18739 5.86978L7.70996 1.25201" stroke="#FCE500" stroke-width="2" stroke-miterlimit="10" stroke-linecap="round" stroke-linejoin="round" />
		<path d="M10.7586 11.3714H1" stroke="#FCE500" stroke-width="2" stroke-miterlimit="10" stroke-linecap="round" stroke-linejoin="round" />
		<path d="M5.95481 11.3714L2.35156 14.2991" stroke="#FCE500" stroke-width="2" stroke-miterlimit="10" stroke-linecap="round" stroke-linejoin="round" />
		<path d="M5.95481 11.3715L2.35156 8.44383" stroke="#FCE500" stroke-width="2" stroke-miterlimit="10" stroke-linecap="round" stroke-linejoin="round" />
		<path d="M11.6645 13.4433L4.76367 20.344" stroke="#FCE500" stroke-width="2" stroke-miterlimit="10" stroke-linecap="round" stroke-linejoin="round" />
		<path d="M8.26706 16.8406L7.78906 21.4584" stroke="#FCE500" stroke-width="2" stroke-miterlimit="10" stroke-linecap="round" stroke-linejoin="round" />
		<path d="M8.26777 16.8406L3.64941 17.3186" stroke="#FCE500" stroke-width="2" stroke-miterlimit="10" stroke-linecap="round" stroke-linejoin="round" />
		<path d="M13.7686 14.2687V24.0273" stroke="#FCE500" stroke-width="2" stroke-miterlimit="10" stroke-linecap="round" stroke-linejoin="round" />
		<path d="M13.7686 19.0728L16.6962 22.676" stroke="#FCE500" stroke-width="2" stroke-miterlimit="10" stroke-linecap="round" stroke-linejoin="round" />
		<path d="M13.7685 19.0728L10.8408 22.676" stroke="#FCE500" stroke-width="2" stroke-miterlimit="10" stroke-linecap="round" stroke-linejoin="round" />
	</symbol>
	<symbol id="filter4" fill="none">
		<path d="M14.3338 1H12.6662L7.35803 12.1227L10.6966 14.1265V18.6016L1 20.1836V22.1251C1 24.2651 11.2889 26 13.5013 26C15.7112 26 26 24.2651 26 22.1251V20.1836L16.3047 18.6016V14.1265L19.6432 12.1227L14.3338 1Z" stroke="#FCE500" stroke-width="2" stroke-miterlimit="10" stroke-linecap="round" stroke-linejoin="round" />
		<path d="M10.999 13.9035H15.9869" stroke="#FCE500" stroke-width="2" stroke-miterlimit="10" stroke-linecap="round" stroke-linejoin="round" />
		<path d="M10.999 18.6017H17.0403" stroke="#FCE500" stroke-width="2" stroke-miterlimit="10" stroke-linecap="round" stroke-linejoin="round" />
	</symbol>
	<symbol id="filter2" fill="none">
		<path d="M13.4441 5.87107L10.5654 2.32803" stroke="white" stroke-width="2" stroke-miterlimit="10" stroke-linecap="round" stroke-linejoin="round" />
		<path d="M13.4443 5.87107L16.323 2.32803" stroke="white" stroke-width="2" stroke-miterlimit="10" stroke-linecap="round" stroke-linejoin="round" />
		<path d="M8.06697 8.14475L3.52637 7.67532" stroke="white" stroke-width="2" stroke-miterlimit="10" stroke-linecap="round" stroke-linejoin="round" />
		<path d="M8.0671 8.14477L7.59766 3.60419" stroke="white" stroke-width="2" stroke-miterlimit="10" stroke-linecap="round" stroke-linejoin="round" />
		<path d="M5.87212 13.5545L2.3291 16.4332" stroke="white" stroke-width="2" stroke-miterlimit="10" stroke-linecap="round" stroke-linejoin="round" />
		<path d="M5.87212 13.5545L2.3291 10.6758" stroke="white" stroke-width="2" stroke-miterlimit="10" stroke-linecap="round" stroke-linejoin="round" />
		<path d="M8.14578 18.9322L7.67578 23.4728" stroke="white" stroke-width="2" stroke-miterlimit="10" stroke-linecap="round" stroke-linejoin="round" />
		<path d="M8.14565 18.9322L3.60449 19.4022" stroke="white" stroke-width="2" stroke-miterlimit="10" stroke-linecap="round" stroke-linejoin="round" />
		<path d="M13.5557 21.1271L16.4344 24.6701" stroke="white" stroke-width="2" stroke-miterlimit="10" stroke-linecap="round" stroke-linejoin="round" />
		<path d="M13.5555 21.1271L10.6768 24.6701" stroke="white" stroke-width="2" stroke-miterlimit="10" stroke-linecap="round" stroke-linejoin="round" />
		<path d="M18.9326 18.8535L23.4732 19.3241" stroke="white" stroke-width="2" stroke-miterlimit="10" stroke-linecap="round" stroke-linejoin="round" />
		<path d="M18.9326 18.8535L19.4021 23.3952" stroke="white" stroke-width="2" stroke-miterlimit="10" stroke-linecap="round" stroke-linejoin="round" />
		<path d="M21.1279 13.4438L24.6709 10.5651" stroke="white" stroke-width="2" stroke-miterlimit="10" stroke-linecap="round" stroke-linejoin="round" />
		<path d="M21.1279 13.4438L24.6709 16.3225" stroke="white" stroke-width="2" stroke-miterlimit="10" stroke-linecap="round" stroke-linejoin="round" />
		<path d="M13.4998 16.3778C15.0897 16.3778 16.3785 15.0889 16.3785 13.4991C16.3785 11.9092 15.0897 10.6204 13.4998 10.6204C11.9099 10.6204 10.6211 11.9092 10.6211 13.4991C10.6211 15.0889 11.9099 16.3778 13.4998 16.3778Z" stroke="white" stroke-width="2" stroke-miterlimit="10" stroke-linecap="round" stroke-linejoin="round" />
		<path d="M13.4443 10.5955V1" stroke="white" stroke-width="2" stroke-miterlimit="10" stroke-linecap="round" stroke-linejoin="round" />
		<path d="M11.407 11.4852L4.62207 4.70029" stroke="white" stroke-width="2" stroke-miterlimit="10" stroke-linecap="round" stroke-linejoin="round" />
		<path d="M10.5955 13.5545H1" stroke="white" stroke-width="2" stroke-miterlimit="10" stroke-linecap="round" stroke-linejoin="round" />
		<path d="M11.4856 15.5917L4.7002 22.3771" stroke="white" stroke-width="2" stroke-miterlimit="10" stroke-linecap="round" stroke-linejoin="round" />
		<path d="M13.5557 16.4033V25.9988" stroke="white" stroke-width="2" stroke-miterlimit="10" stroke-linecap="round" stroke-linejoin="round" />
		<path d="M15.5928 15.5137L22.3777 22.2986" stroke="white" stroke-width="2" stroke-miterlimit="10" stroke-linecap="round" stroke-linejoin="round" />
		<path d="M16.4043 13.4438H25.9998" stroke="white" stroke-width="2" stroke-miterlimit="10" stroke-linecap="round" stroke-linejoin="round" />
		<path d="M15.5137 11.4066L22.2991 4.62164" stroke="white" stroke-width="2" stroke-miterlimit="10" stroke-linecap="round" stroke-linejoin="round" />
		<path d="M18.8545 8.06667L19.3245 3.52551" stroke="white" stroke-width="2" stroke-miterlimit="10" stroke-linecap="round" stroke-linejoin="round" />
		<path d="M18.8545 8.06668L23.3957 7.59668" stroke="white" stroke-width="2" stroke-miterlimit="10" stroke-linecap="round" stroke-linejoin="round" />
	</symbol>
	<symbol id="phone" fill="none">
		<path d="M1.10503 4.78648C0.752214 6.85395 1.26879 9.8204 2.95117 13.4489C4.63355 17.0774 6.56409 19.3888 8.36978 20.455C10.1759 21.5212 11.7198 20.7837 12.8467 20.2613L13.6631 19.8828C14.2882 19.593 14.5601 18.8512 14.2704 18.2257L13.124 15.7541C12.8556 15.1745 12.1675 14.9224 11.5883 15.1912L10.6889 15.6078C10.452 15.7179 10.2568 15.8808 10.1093 16.0753H10.109C10.109 16.0753 9.20922 17.2423 8.0796 16.7716C6.86128 16.264 5.7126 14.2296 4.92606 12.5332C4.13953 10.8368 3.32927 8.64563 3.72876 7.38803C4.09946 6.22145 5.5714 6.28878 5.5714 6.28878V6.2884C5.81529 6.30201 6.0658 6.25802 6.30269 6.14794L7.20165 5.73136C7.78163 5.46257 8.0337 4.77481 7.76491 4.19482L6.61855 1.72318C6.32876 1.09808 5.58696 0.826209 4.96185 1.11601L4.14498 1.49488C3.01807 2.0169 1.45823 2.71939 1.10503 4.78648Z" stroke="#FCE500" stroke-width="2" stroke-miterlimit="10" stroke-linecap="round" stroke-linejoin="round" />
	</symbol>
	<symbol id="orders" fill="none">
		<path d="M13 19.8708L17.7418 15.1277" stroke="#27509B" stroke-width="1.76" stroke-miterlimit="10" stroke-linecap="round" stroke-linejoin="round" />
		<path d="M13 10L17.7418 14.7424" stroke="#27509B" stroke-width="1.76" stroke-miterlimit="10" stroke-linecap="round" stroke-linejoin="round" />
		<path d="M14.5 27C21.4036 27 27.0001 21.4036 27.0001 14.5C27.0001 7.59642 21.4036 2 14.5 2C7.59646 2 2 7.59642 2 14.5C2 21.4036 7.59646 27 14.5 27Z" stroke="#27509B" stroke-width="2.4" stroke-miterlimit="10" stroke-linecap="round" stroke-linejoin="round" />
	</symbol>
	<symbol id="overlay-success" fill="none">
		<path d="M23.9713 3.69672C23.1287 2.66059 21.8445 1.99915 20.4049 1.99915H5.59601C3.05759 1.99915 1 4.05682 1 6.59524V21.4041C1 23.9425 3.05759 26 5.59601 26H20.4049C22.9434 26 25.0009 23.9425 25.0009 21.4041V14.3301V11.6721" stroke="#309B27" stroke-width="2" stroke-miterlimit="10" stroke-linecap="round" stroke-linejoin="round" />
		<path d="M32.35 1L11.8955 17.6695L7.44897 12.7275" stroke="#309B27" stroke-width="2" stroke-miterlimit="10" stroke-linecap="round" stroke-linejoin="round" />
	</symbol>
	<symbol id="overlay-error" fill="none">
		<path d="M13.5 26C20.4036 26 26.0001 20.4036 26.0001 13.5C26.0001 6.59642 20.4036 1 13.5 1C6.59646 1 1 6.59642 1 13.5C1 20.4036 6.59646 26 13.5 26Z" stroke="#CE1348" stroke-width="2" stroke-miterlimit="10" stroke-linecap="round" stroke-linejoin="round" />
		<path d="M13.5002 7.4758V6.62939" stroke="#CE1348" stroke-width="2" stroke-miterlimit="10" stroke-linecap="round" stroke-linejoin="round" />
		<path d="M13.5002 20.3702V10.9259" stroke="#CE1348" stroke-width="2" stroke-miterlimit="10" stroke-linecap="round" stroke-linejoin="round" />
	</symbol>
	<symbol id="basket-close" fill="none">
		<path d="M12.1289 16.8709L16.8707 12.1277" stroke="#27509B" stroke-width="1.76" stroke-miterlimit="10" stroke-linecap="round" stroke-linejoin="round" />
		<path d="M12.1289 12.1284L16.8707 16.8709" stroke="#27509B" stroke-width="1.76" stroke-miterlimit="10" stroke-linecap="round" stroke-linejoin="round" />
		<path d="M14.5 27C21.4036 27 27.0001 21.4036 27.0001 14.5C27.0001 7.59642 21.4036 2 14.5 2C7.59646 2 2 7.59642 2 14.5C2 21.4036 7.59646 27 14.5 27Z" stroke="#27509B" stroke-width="2.4" stroke-miterlimit="10" stroke-linecap="round" stroke-linejoin="round" />
	</symbol>
	<symbol id="mail" fill="none">
		<path d="M19.563 6.87009L19.5529 6.85875C18.6599 5.86105 12.7731 1.8674 12.7731 1.8674C12.1598 1.41604 11.4361 1.18993 10.712 1.1879V1.1875C10.7099 1.1875 10.7083 1.1879 10.7063 1.1879C10.7047 1.1879 10.7026 1.1875 10.701 1.1875V1.1879C9.97647 1.18993 9.25274 1.41604 8.63943 1.8674C8.63943 1.8674 2.75267 5.86105 1.8601 6.85875L1.84954 6.87009C1.3239 7.43673 1 8.19291 1 9.02703V16.0121C1 17.7656 2.42146 19.1875 4.17494 19.1875H10.701H10.712H17.2376C18.9915 19.1875 20.413 17.7656 20.413 16.0121V9.02703C20.413 8.19291 20.0886 7.43673 19.563 6.87009Z" stroke="#FCE500" stroke-width="2" stroke-miterlimit="10" stroke-linecap="round" stroke-linejoin="round" />
		<path d="M1.84521 18.0803L8.63997 13.0775C9.24841 12.6294 9.96564 12.4033 10.6841 12.3981C11.4216 12.392 12.1603 12.6201 12.7838 13.0804L19.5574 18.0803" stroke="#FCE500" stroke-miterlimit="10" stroke-linecap="round" stroke-linejoin="round" />
		<path d="M12.251 12.7458L20.2062 7.97815" stroke="#FCE500" stroke-miterlimit="10" stroke-linecap="round" stroke-linejoin="round" />
		<path d="M1.1958 7.97815L9.15103 12.7458" stroke="#FCE500" stroke-miterlimit="10" stroke-linecap="round" stroke-linejoin="round" />
	</symbol>
	<symbol id="inst" fill="none">
		<path fill-rule="evenodd" clip-rule="evenodd" d="M17.249 9.07126C17.2335 8.47971 17.2107 7.88681 17.1512 7.29852C17.0173 5.97989 16.2321 5.07055 14.9331 4.82503C14.2391 4.69357 13.5188 4.67538 12.8097 4.66207C11.5109 4.63817 10.2115 4.64088 8.91247 4.66098C8.24216 4.67157 7.56533 4.69494 6.90479 4.79787C5.77683 4.97306 5.0063 5.61947 4.69477 6.73847C4.59482 7.09699 4.53643 7.47696 4.52774 7.84878C4.49433 9.26084 4.47369 10.6734 4.4783 12.0863C4.48156 12.985 4.5022 13.8868 4.58015 14.7817C4.69559 16.1052 5.4873 17.0113 6.78692 17.2611C7.48548 17.395 8.21201 17.4124 8.92687 17.4255C10.22 17.4504 11.5136 17.4423 12.8072 17.4282C13.4097 17.4217 14.0137 17.3885 14.6134 17.3296C15.1694 17.275 15.6895 17.093 16.1363 16.7378C16.8606 16.162 17.1404 15.3678 17.183 14.4873C17.2409 13.2985 17.2525 12.108 17.2841 10.9182C17.2735 10.9176 17.2631 10.9176 17.2525 10.9176C17.2528 10.3019 17.2653 9.68616 17.249 9.07126ZM10.8517 15.0497C8.62729 15.0487 6.85753 13.2604 6.85862 11.0146C6.85944 8.80156 8.65852 7.03614 10.9104 7.03859C13.1084 7.04103 14.872 8.84582 14.8695 11.0903C14.8673 13.2759 13.0663 15.0503 10.8517 15.0497ZM15.0197 7.82378C14.4988 7.81428 14.0748 7.38082 14.0846 6.8683C14.0946 6.34574 14.5164 5.93996 15.0444 5.94485C15.5708 5.9492 15.9695 6.36448 15.9635 6.9009C15.9573 7.41151 15.5271 7.83275 15.0197 7.82378Z" fill="#27509B" />
		<path fill-rule="evenodd" clip-rule="evenodd" d="M10.8609 8.44533C9.43282 8.44967 8.26331 9.62217 8.26575 11.0473C8.2682 12.4729 9.44396 13.6457 10.8677 13.643C12.2941 13.6397 13.4656 12.4653 13.4631 11.0405C13.4604 9.61374 12.2838 8.44044 10.8609 8.44533Z" fill="#27509B" />
		<path fill-rule="evenodd" clip-rule="evenodd" d="M18.5485 0.458984H3.17964C1.42374 0.458984 0 1.84876 0 3.56311V19.0833C0 20.7976 1.42374 22.1874 3.17964 22.1874H18.5485C20.3044 22.1874 21.7281 20.7976 21.7281 19.0833V3.56311C21.7281 1.84876 20.3044 0.458984 18.5485 0.458984ZM18.649 13.5021C18.64 14.321 18.6129 15.1431 18.3399 15.9302C17.8168 17.4401 16.7543 18.3562 15.2024 18.6544C14.4976 18.7899 13.7661 18.8043 13.0456 18.8323C12.3174 18.8608 11.5873 18.8385 10.8581 18.8385C10.8581 18.8459 10.8581 18.8532 10.8578 18.8603C9.80428 18.8418 8.75046 18.832 7.69719 18.8019C6.78787 18.7758 5.90679 18.6115 5.11752 18.1272C4.08353 17.4922 3.45206 16.559 3.2508 15.3734C3.13048 14.6648 3.08757 13.9367 3.0767 13.2164C3.05308 11.6729 3.06231 10.1288 3.07915 8.58502C3.08784 7.76587 3.115 6.94403 3.38823 6.15665C3.91134 4.64736 4.97384 3.73122 6.52577 3.43327C7.23058 3.29747 7.962 3.2679 8.68229 3.25676C10.2312 3.23286 11.7813 3.2418 13.3308 3.25892C14.1439 3.26788 14.9604 3.29559 15.7423 3.56556C17.2587 4.08921 18.1794 5.15336 18.4754 6.71398C18.6093 7.41906 18.6398 8.15046 18.6509 8.87075C18.6748 10.4143 18.6656 11.9583 18.649 13.5021Z" fill="#27509B" />
	</symbol>
	<symbol id="vk" fill="none">
		<path fill-rule="evenodd" clip-rule="evenodd" d="M19.2766 0.1875H3.90779C2.15189 0.1875 0.728149 1.57727 0.728149 3.29162V18.8118C0.728149 20.5261 2.15189 21.9159 3.90779 21.9159H19.2766C21.0325 21.9159 22.4563 20.5261 22.4563 18.8118V3.29162C22.4563 1.57727 21.0325 0.1875 19.2766 0.1875ZM17.5085 12.2167C17.6663 12.4093 17.8437 12.5853 18.0159 12.7659C18.5604 13.3368 19.1137 13.899 19.6458 14.4808C19.8065 14.6568 19.9263 14.8782 20.0344 15.0941C20.2183 15.461 20.0972 15.7429 19.7069 15.8722C19.5559 15.9225 19.391 15.9488 19.2316 15.9529C18.4963 15.9722 17.7603 15.9847 17.0245 15.9901C16.5476 15.9939 16.1434 15.7913 15.8012 15.4787C15.538 15.2383 15.3047 14.9651 15.0576 14.7068C14.8248 14.4634 14.6073 14.2013 14.3541 13.9808C13.928 13.6098 13.5336 13.704 13.3533 14.241C13.2392 14.5807 13.2001 14.9501 13.1632 15.31C13.1216 15.7166 12.9722 15.9279 12.5732 15.9461C11.5919 15.9906 10.6188 15.964 9.68231 15.5916C8.49894 15.1207 7.56871 14.3355 6.79247 13.3452C5.63246 11.8647 4.73536 10.227 3.91594 8.5425C3.75352 8.2087 3.59762 7.87166 3.45123 7.53053C3.28093 7.13426 3.4132 6.90449 3.84315 6.89227C4.646 6.87 5.4494 6.86401 6.2528 6.86889C6.59909 6.87107 6.81637 7.07096 6.94755 7.39416C7.39325 8.49279 7.95547 9.52979 8.65837 10.4869C8.78548 10.6594 8.93215 10.8234 9.09511 10.9617C9.42728 11.2438 9.71681 11.1656 9.82246 10.7463C9.9072 10.409 9.95854 10.0551 9.96315 9.70795C9.97021 9.14926 9.94414 8.58894 9.89878 8.03189C9.85913 7.54626 9.57748 7.24534 9.09213 7.14593C9.04704 7.13697 9.00385 7.1174 8.92645 7.09133C9.02422 6.83629 9.20375 6.68938 9.42565 6.62773C9.7092 6.54869 10.0055 6.47588 10.2972 6.4729C10.9974 6.46502 11.7022 6.45876 12.3972 6.52856C13.0021 6.58913 13.1833 6.83711 13.1838 7.45066C13.1838 8.20652 13.1523 8.96185 13.1414 9.71799C13.1376 9.97384 13.1493 10.2305 13.1667 10.4861C13.1729 10.5849 13.205 10.6854 13.2419 10.7789C13.3818 11.1303 13.6197 11.2061 13.8987 10.9559C14.1279 10.7506 14.337 10.5151 14.5198 10.2669C15.179 9.37007 15.6907 8.39067 16.1011 7.35723C16.2578 6.96178 16.3629 6.89307 16.7806 6.89144C17.6514 6.88764 18.5224 6.88411 19.3929 6.87569C20.0934 6.86917 20.2905 7.12475 19.985 7.7584C19.7283 8.29019 19.4108 8.79728 19.0748 9.28453C18.6577 9.88966 18.1905 10.4603 17.753 11.0513C17.6335 11.2132 17.5313 11.3902 17.4398 11.5698C17.3257 11.7947 17.3499 12.0228 17.5085 12.2167Z" fill="#27509B" />
	</symbol>
	<symbol id="youtube" fill="none">
		<path fill-rule="evenodd" clip-rule="evenodd" d="M3.63594 0.1875H19.0048C20.7607 0.1875 22.1844 1.57727 22.1844 3.29162V18.8118C22.1844 20.5261 20.7607 21.9159 19.0048 21.9159H3.63594C1.88003 21.9159 0.456299 20.5261 0.456299 18.8118V3.29162C0.456299 1.57727 1.88003 0.1875 3.63594 0.1875ZM8.67222 15.2673L16.2092 10.9158L8.67222 6.56434V15.2673Z" fill="#27509B" />
	</symbol>
	<symbol fill="none" id="user">
		<path d="M10.8724 12.2404C15.7718 12.2404 19.7448 16.2128 19.7448 21.1128C19.7448 21.6033 19.3481 22 18.8582 22H2.88724C2.39672 22 2 21.6033 2 21.1128C2 16.2128 5.97239 12.2404 10.8724 12.2404Z" stroke="#27509B" stroke-width="2.4" stroke-miterlimit="10" stroke-linecap="round" stroke-linejoin="round" />
		<path d="M10.8731 10.0959C13.1088 10.0959 14.9211 8.28357 14.9211 6.04795C14.9211 3.81232 13.1088 2 10.8731 2C8.63752 2 6.8252 3.81232 6.8252 6.04795C6.8252 8.28357 8.63752 10.0959 10.8731 10.0959Z" stroke="#27509B" stroke-width="2.4" stroke-miterlimit="10" stroke-linecap="round" stroke-linejoin="round" />
	</symbol>
	<symbol id="basket" fill="none">
		<path d="M1.47791 5.37111L6.53823 1" stroke="#27509B" stroke-width="2" stroke-miterlimit="10" stroke-linecap="round" stroke-linejoin="round" />
		<path d="M16.5212 5.37111L11.4613 1" stroke="#27509B" stroke-width="2" stroke-miterlimit="10" stroke-linecap="round" stroke-linejoin="round" />
		<path d="M12.7323 15.0578H5.26751C4.88237 15.0578 4.5295 14.8411 4.35561 14.4972L1.05106 6.32152C0.867342 5.86715 1.20211 5.37111 1.6919 5.37111H16.3079C16.7981 5.37111 17.1329 5.86715 16.9488 6.32152L13.6442 14.4972C13.4703 14.8411 13.1171 15.0578 12.7323 15.0578Z" stroke="#27509B" stroke-width="2" stroke-miterlimit="10" stroke-linecap="round" stroke-linejoin="round" />
	</symbol>
</svg>
